<svg width="35" height="35" viewBox="0 0 35 35" fill="none" xmlns="http://www.w3.org/2000/svg">
<g clip-path="url(#clip0)">
<path d="M29.8746 29.8744C36.7087 23.0402 36.7087 11.9598 29.8746 5.12563C23.0404 -1.70854 11.96 -1.70854 5.12583 5.12563C-1.70834 11.9598 -1.70834 23.0402 5.12583 29.8744C11.96 36.7085 23.0404 36.7085 29.8746 29.8744Z" fill="#E3C092"/>
<path d="M23.1619 32.3631C22.4841 30.5889 23.2245 25.8145 23.2245 25.8145L12.0633 24.9959C12.0633 24.9959 12.1866 31.2713 11.7552 32.4992C11.6274 32.8625 11.2144 33.2552 10.6957 33.6277C12.8286 34.5247 15.1179 34.9911 17.4318 34.9999C19.7457 35.0087 22.0385 34.5599 24.1782 33.6792C23.7294 33.2948 23.3477 32.8469 23.1619 32.3631Z" fill="#C05C37"/>
<path d="M26.5071 18.6184C26.3017 18.4108 26.0391 18.2689 25.7529 18.211L25.6048 18.3029C25.6866 16.1323 25.533 13.1708 25.5027 13.0797C25.4567 12.9427 24.4569 10.9873 23.5013 10.3508C22.5457 9.71435 21.4098 8.98684 20.4091 8.75966C19.4085 8.53248 17.7262 9.35014 16.4542 10.0786C15.1822 10.807 11.4058 13.7622 11.1786 14.1255C11.0047 14.4014 10.406 17.0686 10.1337 18.314L7.91624 18.0381C7.57501 18.1061 7.06363 18.9578 7.06363 18.9578C6.99465 19.8444 7.23378 20.766 7.30185 21.0383C7.36991 21.3105 7.64307 22.1981 7.64307 22.1981C7.71113 23.0847 9.21216 24.3466 10.1328 24.0063H10.2349C10.7812 24.3466 11.0875 25.0971 11.2926 25.7115C11.5147 26.5864 12.0327 27.3576 12.7587 27.894C13.9866 28.8138 15.5179 30.0766 16.1351 30.5199C17.1719 31.2731 18.441 31.6368 19.7193 31.5473C21.4935 31.4452 22.2771 30.4215 22.5843 29.808C22.8915 29.1946 23.8122 28.1709 24.1875 27.6926C24.5627 27.2144 24.7669 26.3967 24.972 25.0667C25.1771 23.7368 25.5174 23.2273 25.7225 22.7821C25.8862 22.4271 26.0711 22.0058 25.9984 21.0824L26.0279 21.076C26.2679 20.2896 26.404 19.4066 26.5071 18.6184Z" fill="#D46D47"/>
<path d="M13.0006 24.4045C12.3181 23.632 10.681 21.8578 10.681 21.8578L10.1356 21.4899C10.1356 21.4899 10.4538 22.8088 10.2275 23.5814C10.1356 23.8876 9.98288 24.0155 9.8302 24.0578C9.9346 24.056 10.038 24.0374 10.1365 24.0026H10.2386C10.7849 24.3429 11.0912 25.0934 11.2963 25.7078C11.5184 26.5828 12.0364 27.3539 12.7623 27.8904C13.8228 28.685 15.1105 29.7299 15.838 30.2909C15.6091 30.0296 15.4055 29.7472 15.23 29.4475C14.9559 28.9067 13.683 25.178 13.0006 24.4045Z" fill="#D46D47"/>
<path d="M24.972 25.064C25.1762 23.734 25.5174 23.2245 25.7225 22.7793C25.877 22.4427 26.0518 22.0435 26.0076 21.2213C25.8237 22.404 25.3703 22.8133 25.052 23.3137C24.7338 23.814 24.1433 26.0876 23.7791 26.9062C23.4627 27.6162 22.9762 29.0124 22.8529 29.3684C23.2594 28.7816 23.8922 28.0669 24.1884 27.6898C24.5627 27.2125 24.7669 26.3967 24.972 25.064Z" fill="#D46D47"/>
<path d="M21.4585 22.6312L21.0952 21.9488C21.0481 21.6858 21.0174 21.4201 21.0033 21.1532C21.0033 20.8773 20.8671 20.2436 20.8193 20.0615C20.7715 19.8794 20.6832 19.1068 20.7273 18.7656C20.7273 18.7656 20.9554 19.425 21.1146 19.6752C21.2737 19.9254 22.2734 20.858 22.4785 21.2893C22.6836 21.7207 22.4555 22.8354 22.3645 23.1996L21.8899 22.7904L21.4585 22.6312Z" fill="#D46D47"/>
<path d="M18.3664 22.4951C18.3664 22.4951 18.7536 22.0628 18.8437 21.7216C18.9339 21.3804 18.7987 19.6301 18.7518 19.3119C18.7049 18.9936 18.1613 18.1061 18.1613 18.1061C18.1613 18.1061 17.8854 18.9927 17.5929 19.3339C17.3004 19.6752 16.5241 20.6988 16.5011 21.2654C16.4782 21.832 16.7283 22.5153 17.2057 23.3339L17.5736 22.9927L18.3664 22.4951Z" fill="#D46D47"/>
<path d="M12.6823 19.0838C12.6823 19.0838 13.3188 20.5848 14.7738 20.4938C16.2289 20.4027 16.6381 19.3147 16.6381 19.3147L14.8649 18.9468L12.6823 19.0838Z" fill="#D46D47"/>
<path d="M21.5956 19.3146C21.5956 19.3146 22.1861 20.4055 23.2328 20.4055C24.2795 20.4055 24.7789 19.0865 24.7789 19.0865L22.8235 19.1785L21.5956 19.3146Z" fill="#D46D47"/>
<path d="M13.0687 19.4535C13.0687 19.4535 14.6543 20.4257 16.2749 19.6071C16.2749 19.6071 15.4398 20.7062 14.6378 20.6299C13.7336 20.5452 13.0687 19.4535 13.0687 19.4535Z" fill="#D46D47"/>
<path d="M21.9745 19.6687C21.9745 19.6687 22.6524 20.0495 23.3247 19.9336C23.7644 19.8418 24.1749 19.6438 24.5204 19.3569C24.5204 19.3569 24.1875 20.3401 23.4029 20.4422C22.6855 20.5361 21.9745 19.6687 21.9745 19.6687Z" fill="#D46D47"/>
<path d="M12.8644 19.0838C12.8644 19.0838 10.727 18.4023 11.8638 16.7651C11.8638 16.7651 13.0456 15.9916 14.4105 16.2648C15.7754 16.5379 17.9571 17.6288 17.9571 17.6288C17.9571 17.6288 17.8651 19.1298 16.5931 19.2659L12.8644 19.0838Z" fill="#D46D47"/>
<path d="M21.5956 19.3147C21.5956 19.3147 20.686 18.359 21.0042 17.6775C21.3224 16.996 22.5503 16.3586 22.5503 16.3586L23.8692 16.2216L24.8699 16.6768L25.2378 17.4043C25.2378 17.4043 25.4217 18.5862 24.6924 18.9955L23.1003 19.4508L21.5956 19.3147Z" fill="#D46D47"/>
<path d="M21.5524 22.6717C21.7474 22.347 22.2238 22.8741 22.2826 23.0635C22.3645 23.3284 22.2661 23.4517 22.1686 23.6926L21.5524 22.6717Z" fill="#D46D47"/>
<path d="M19.2079 21.9718C19.2079 21.9718 19.8904 21.4945 21.0042 21.8357V21.5395C21.0042 21.5395 20.1176 21.1983 19.299 21.6076L19.2079 21.9718Z" fill="#D46D47"/>
<path d="M21.2029 23.6485C21.0968 23.8478 20.9364 24.0131 20.7402 24.1251C20.5441 24.2371 20.3202 24.2912 20.0946 24.2812C19.5492 24.2647 19.4977 24.0596 19.276 23.8214C19.0543 23.5832 18.5936 23.5142 18.5936 23.5142C17.7584 23.4461 17.3979 23.8214 17.3979 23.8214C17.5009 24.0596 18.0417 24.2812 18.0417 24.2812C18.0417 24.2812 18.8906 25.144 19.7294 25.2451C19.7745 25.3371 19.8591 25.4971 19.952 25.5431C20.0449 25.5891 20.1875 25.3491 20.2611 25.2037C20.9527 25.0152 21.282 24.3843 21.282 24.3843C21.7933 24.2812 22.1171 23.7864 22.1171 23.7864C21.991 23.6838 21.8396 23.6169 21.6788 23.5926C21.518 23.5684 21.3537 23.5876 21.2029 23.6485Z" fill="#D46D47"/>
<path d="M16.0955 26.542C16.0955 26.542 16.9601 26.9743 17.2553 27.1334C17.5506 27.2925 17.9828 27.7929 18.6874 27.929C18.9745 27.9794 19.2651 28.0083 19.5565 28.0155C20.0237 28.0281 20.4908 27.9858 20.9481 27.8895C21.3712 27.7975 21.6554 27.5464 21.9221 27.2125C22.1061 26.9853 22.1189 27.0102 22.4169 26.7471C22.6079 26.582 22.7829 26.399 22.9393 26.2008C22.7423 26.3933 22.4859 26.5136 22.2118 26.542C21.7575 26.5871 20.1203 26.3829 20.1203 26.3829L17.6591 26.5871L16.5903 26.565L16.0955 26.542Z" fill="#903024"/>
<path d="M22.2091 26.542C21.7547 26.5871 20.1176 26.3829 20.1176 26.3829L17.6591 26.5871L16.5904 26.565L16.09 26.542C16.09 26.542 16.9546 26.9743 17.2498 27.1334C17.2961 27.1589 17.3407 27.1875 17.3832 27.219C17.2912 27.1196 17.1615 26.943 17.2719 26.8833C17.4319 26.7913 18.6598 26.6993 19.3193 26.8152C19.9787 26.9311 19.8877 27.1785 20.8424 26.7471C20.8424 26.7471 21.729 26.6782 21.843 26.8603C21.9571 27.0424 21.5929 27.5427 21.5929 27.5427H21.614C21.7256 27.4416 21.8284 27.3311 21.9212 27.2125C22.1052 26.9853 22.118 27.0102 22.416 26.7471C22.6071 26.582 22.782 26.399 22.9385 26.2008C22.7409 26.3937 22.4838 26.514 22.2091 26.542ZM19.4811 27.8839C18.9449 27.8586 18.4158 27.7512 17.912 27.5657L17.8936 27.5924C18.1326 27.7555 18.4014 27.8699 18.6846 27.929C18.9718 27.9794 19.2623 28.0083 19.5538 28.0155C20.021 28.0281 20.488 27.9858 20.9454 27.8895C21.1528 27.8445 21.3474 27.7533 21.5147 27.6227C21.5033 27.6252 21.4922 27.6289 21.4816 27.6338C21.2314 27.7469 20.2997 27.906 19.4811 27.8839Z" fill="#7B231E"/>
<path d="M19.6403 26.7012C18.2983 26.3149 16.411 27.2926 15.3423 25.9966C15.3423 25.9966 15.9107 26.6561 16.7063 26.519C17.1431 26.4445 17.5478 26.2496 17.9636 26.1042C18.3315 25.9764 18.7058 25.8403 19.0958 25.8191C19.2647 25.8062 19.4344 25.8284 19.5943 25.8844C19.6504 25.9065 20.0725 26.1778 20.0716 26.1778C20.3264 26.0242 20.6235 25.7924 20.9334 25.8384C21.2011 25.878 21.4935 26.0362 21.7318 26.1557C22.2321 26.4059 22.3682 26.4059 22.7094 26.2919C23.0507 26.1778 23.3008 25.7465 23.3008 25.7465C23.1858 25.9628 23.0275 26.1532 22.8357 26.3057C22.6439 26.4582 22.4228 26.5697 22.1861 26.6331C21.7998 26.7251 21.1634 26.6101 20.7541 26.6101L20.6621 26.6331C20.4579 26.7471 20.2528 26.8603 20.0256 26.8833C19.9232 26.8473 19.8243 26.8017 19.7304 26.7471L19.6403 26.7012Z" fill="#7B231E"/>
<path d="M19.6421 26.6938C18.9679 26.4721 18.1944 26.6303 17.5037 26.6717C16.6998 26.7195 15.9079 26.6294 15.3432 25.9957C15.8224 26.5926 16.549 26.7223 17.2747 26.7048C18.0693 26.6855 18.8502 26.5282 19.6375 26.7048C19.6382 26.706 19.6392 26.7069 19.6404 26.7075C19.6416 26.7081 19.643 26.7084 19.6443 26.7083C19.6457 26.7082 19.647 26.7077 19.6481 26.7069C19.6492 26.7061 19.65 26.705 19.6505 26.7038C19.6511 26.7025 19.6512 26.7012 19.651 26.6998C19.6508 26.6985 19.6502 26.6972 19.6494 26.6962C19.6485 26.6952 19.6474 26.6944 19.6461 26.694C19.6448 26.6936 19.6434 26.6935 19.6421 26.6938ZM20.6538 26.6101C20.3365 26.737 20.0679 26.9412 19.7285 26.7462C19.861 26.8437 19.9815 26.9302 20.147 26.9017C20.338 26.8567 20.5174 26.7717 20.6731 26.6524C20.6943 26.6386 20.6832 26.6 20.6566 26.6101H20.6538ZM23.2916 25.7428C23.1622 25.9366 23.0117 26.1156 22.8428 26.2762C22.6478 26.4351 22.4225 26.5524 22.1806 26.6211C21.9543 26.6892 21.6812 26.6588 21.4494 26.645C21.2176 26.6312 20.9849 26.6083 20.7513 26.6092C21.2323 26.6202 21.763 26.7674 22.2348 26.6294C22.68 26.4997 23.1123 26.1797 23.3036 25.7483C23.3034 25.7473 23.303 25.7464 23.3024 25.7456C23.3018 25.7447 23.3011 25.7441 23.3002 25.7435C23.2993 25.743 23.2984 25.7427 23.2974 25.7426C23.2964 25.7424 23.2954 25.7425 23.2944 25.7428H23.2916Z" fill="#7B231E"/>
<path d="M10.4087 19.8573C10.4087 19.8573 11.4545 17.9019 11.5455 17.4467C11.6366 16.9914 12.8185 16.0376 12.9546 15.9916C13.0907 15.9456 13.4549 15.173 13.592 14.2183C13.592 14.2183 14.5467 13.3087 15.2291 12.5352C15.9116 11.7617 17.7299 10.853 19.5905 10.669C21.4512 10.4851 23.138 11.9429 23.5455 12.3062C23.9529 12.6695 24.6823 13.6711 24.7733 14.3986C24.8644 15.1261 24.8184 16.308 24.8184 16.308L25.2783 17.6269C25.2783 17.6269 25.1412 19.173 25.5542 19.5372C25.5542 19.5372 25.6903 17.2176 25.7814 16.8994C25.8724 16.5812 25.5054 13.0797 25.5054 13.0797C25.5054 13.0797 24.4652 10.945 24.2325 10.8079C23.9998 10.6709 22.2771 9.94337 22.2771 9.94337C22.2771 9.94337 19.8674 9.3069 19.1849 9.26092C18.5025 9.21493 15.322 9.85231 15.0921 9.94337C14.8621 10.0344 11.5888 12.7173 11.3634 12.8994C11.1381 13.0815 9.68029 15.8095 9.63522 15.9916C9.59015 16.1737 9.63522 18.1742 9.68121 18.3112C9.7272 18.4483 10.0445 20.1296 10.0445 20.1296L10.2717 21.3123L10.4087 19.8573Z" fill="#D46D47"/>
<path d="M18.2873 23.7846H18.1337C18.611 24.2969 19.0884 24.0237 19.0884 24.0237C18.7628 23.7166 18.2873 23.7846 18.2873 23.7846ZM21.3224 23.7846L21.1688 24.0237L21.0833 24.1433C21.5101 24.1433 21.6802 23.8876 21.6802 23.8876C21.5781 23.7846 21.3224 23.7846 21.3224 23.7846Z" fill="black"/>
<path d="M17.4908 23.9465C17.2857 23.7763 17.2149 23.4507 17.2563 23.1978C17.339 22.6966 17.9461 22.5604 18.3664 22.5227C18.3679 22.5227 18.3693 22.5221 18.3703 22.5211C18.3713 22.5201 18.3719 22.5187 18.3719 22.5172C18.3719 22.5157 18.3713 22.5143 18.3703 22.5133C18.3693 22.5123 18.3679 22.5117 18.3664 22.5117C17.8927 22.485 17.2811 22.6432 17.1707 23.1739C17.0291 23.8334 17.6591 24.0936 18.1401 24.3162C18.1401 24.3162 18.1475 24.3162 18.1401 24.3107C17.9212 24.1976 17.6821 24.1065 17.4908 23.9465ZM21.8706 22.5586C21.8706 22.5586 21.8614 22.5586 21.8651 22.5659C22.1291 22.8235 22.3388 23.0874 22.2569 23.4756C22.1815 23.8343 21.8725 24.089 21.5717 24.2666C21.5717 24.2666 21.5717 24.2712 21.5717 24.2666C21.8945 24.0826 22.2376 23.8278 22.3425 23.4544C22.4473 23.081 22.1659 22.7333 21.8706 22.5586ZM20.9592 20.927C20.9959 21.2663 20.9426 21.6122 21.0309 21.946C21.0453 21.9951 21.0631 22.043 21.0842 22.0895C21.1128 22.1539 21.156 22.1815 21.1909 22.2367C21.2829 22.3811 21.3749 22.519 21.4761 22.657C21.4806 22.6644 21.4926 22.657 21.488 22.6506C21.4071 22.5172 21.3179 22.3884 21.2397 22.2532C21.1939 22.1576 21.1554 22.0586 21.1247 21.9571C21.0042 21.6278 21.0438 21.2691 21.0024 20.927C20.9582 20.5508 20.8442 20.1856 20.8019 19.8113C20.7816 19.6274 20.777 19.4434 20.7596 19.2595C20.7315 19.0584 20.7315 18.8544 20.7596 18.6534C20.7596 18.6478 20.7531 18.646 20.7522 18.6534C20.686 19.001 20.6483 19.3671 20.7412 19.7129C20.8453 20.1113 20.9182 20.5172 20.9592 20.927ZM17.9084 23.8527C17.8992 23.8573 17.9084 23.8701 17.9157 23.8656C18.2431 23.712 18.6837 23.7846 18.9983 23.9354C19.0075 23.94 19.0194 23.9272 19.0102 23.9198C18.8538 23.8009 18.6656 23.731 18.4695 23.7191C18.2733 23.7071 18.0781 23.7536 17.9084 23.8527ZM21.7575 23.9244C21.6526 23.8324 21.4972 23.7405 21.3537 23.7782C21.3583 23.7662 21.3436 23.7515 21.3335 23.7625L21.3004 23.8002H21.2903C21.2878 23.8014 21.2857 23.8035 21.2846 23.806C21.2834 23.8085 21.2831 23.8114 21.2838 23.814C21.1711 23.9608 21.0482 24.0994 20.9159 24.2288C20.7682 24.353 20.5923 24.4392 20.4036 24.4799C20.1999 24.5201 19.9913 24.53 19.7846 24.5094C19.4949 24.4901 19.3156 24.1994 19.0912 24.0375C19.0912 24.0375 19.0856 24.0375 19.0912 24.0421C19.1785 24.1185 19.2622 24.1985 19.3459 24.2785C19.4296 24.3585 19.563 24.4496 19.5979 24.5544C19.6 24.5616 19.6038 24.5681 19.6092 24.5732C19.6145 24.5784 19.6211 24.5821 19.6283 24.5839C19.9502 24.6326 20.3107 24.6363 20.6152 24.5039C20.9215 24.3639 21.1726 24.1261 21.3289 23.8278C21.39 23.8211 21.4517 23.8211 21.5128 23.8278C21.5984 23.8441 21.679 23.88 21.7483 23.9327C21.7566 23.9336 21.7612 23.9272 21.7575 23.9244Z" fill="#742F04"/>
<path d="M9.65727 22.6598C9.65727 22.6598 8.85525 22.6938 8.5315 22.4381C8.20775 22.1824 7.90056 21.8237 7.88768 21.2783C7.8748 20.7329 7.47839 20.4423 7.29168 19.5391C7.29168 19.5391 7.10774 18.9762 7.5814 19.0102C8.05507 19.0442 8.34847 19.6071 8.34847 19.6071L8.79179 20.3742L9.33812 20.9205L9.64439 21.5855L9.67843 22.2164L9.65727 22.6598Z" fill="#D46D47"/>
<path d="M25.9267 20.2896C25.9622 19.7562 26.1012 19.2348 26.336 18.7545C26.336 18.7545 26.3249 20.0164 26.0067 20.8801L25.9267 20.2896Z" fill="#742F04"/>
<path d="M7.33862 19.0617C8.08914 18.6184 8.66858 20.1866 9.11189 20.6299C9.31608 20.8488 9.69133 21.1459 9.77319 21.442C9.85505 21.7382 9.58372 21.9939 9.6665 22.2928C9.74928 22.5917 10.1889 22.7986 10.1696 23.1206L9.56533 22.6083C9.56533 22.6083 8.70077 22.313 8.70077 21.8577C8.70077 21.8577 8.72376 21.4485 8.81481 21.3123C8.90587 21.1762 8.49658 20.6078 8.22342 20.835C8.22342 20.835 8.51958 20.4027 8.26941 20.0164C8.01924 19.6301 7.72584 19.2227 7.72584 19.2227L7.33862 19.0617Z" fill="#D46D47"/>
<path d="M8.25381 23.2401C8.00521 23.0015 7.81835 22.7061 7.70932 22.3792C7.68632 22.2992 7.68356 22.2173 7.65873 22.1382C7.62102 22.0159 7.58331 21.8927 7.54652 21.7703C7.34694 21.1136 7.16851 20.4588 7.1032 19.7727C7.0793 19.5235 7.07376 19.273 7.08665 19.0231C7.1041 18.9365 7.1448 18.8564 7.20438 18.7913C7.37269 18.5393 7.57227 18.2551 7.83256 18.0932C7.86109 18.0762 7.89213 18.0638 7.92454 18.0564C7.92854 18.0546 7.93175 18.0514 7.93359 18.0474C7.93542 18.0433 7.93576 18.0388 7.93453 18.0346C7.93331 18.0303 7.9306 18.0267 7.92691 18.0243C7.92322 18.0219 7.91879 18.0209 7.91442 18.0215C7.67161 18.0766 7.48674 18.3259 7.34418 18.5126C7.23657 18.6524 7.04986 18.8391 7.03698 19.0231C6.98456 19.7763 7.13539 20.5443 7.33774 21.2663C7.41776 21.5514 7.50329 21.8347 7.58975 22.118C7.65413 22.3296 7.68172 22.531 7.79025 22.7315C8.12092 23.3142 8.64759 23.7607 9.27656 23.9915C9.55225 24.0983 9.85673 24.1045 10.1365 24.009C9.46419 24.2242 8.69988 23.6908 8.25381 23.2401ZM25.8844 20.2914C26.0077 20.9941 26.0932 21.7464 25.8541 22.4344C25.7005 22.874 25.4494 23.2723 25.2884 23.711C24.9775 24.5627 24.9251 25.4778 24.72 26.3562C24.6462 26.7034 24.532 27.0408 24.3797 27.3615C24.2454 27.631 24.0403 27.8554 23.8481 28.0853C23.3882 28.6372 22.8851 29.1945 22.5531 29.8402C22.2932 30.337 21.9014 30.7526 21.4209 31.0414C20.6492 31.5114 19.7065 31.5932 18.8244 31.5187C18.0352 31.4469 17.2714 31.202 16.5876 30.8013C16.0533 30.4905 15.5759 30.0821 15.093 29.6976C14.3903 29.1458 13.6913 28.5857 12.9776 28.0421C12.5903 27.7654 12.2442 27.4353 11.9493 27.0616C11.7469 26.7883 11.58 26.4904 11.4527 26.175C11.3911 26.028 11.3422 25.876 11.3064 25.7207C11.2224 25.405 11.0988 25.1012 10.9385 24.8165C10.7809 24.4872 10.5408 24.2042 10.2414 23.9952C10.2313 23.9888 10.2221 24.0044 10.2322 24.0108C10.8107 24.3879 11.1381 25.1477 11.3046 25.7942C11.4495 26.3192 11.7044 26.8074 12.0524 27.2263C12.3355 27.5529 12.6573 27.8438 13.0107 28.0927C13.3952 28.3852 13.776 28.6832 14.1558 28.983C14.7592 29.4585 15.3515 29.9432 15.9686 30.4058C17.133 31.2842 18.6009 31.722 20.0597 31.5197C20.7608 31.438 21.4196 31.1418 21.9461 30.6716C22.1313 30.499 22.2945 30.3041 22.4317 30.0913C22.577 29.8678 22.6874 29.6259 22.8373 29.4052C23.253 28.7917 23.7644 28.2536 24.2169 27.6687C24.6299 27.1334 24.754 26.381 24.8727 25.7372C25.0263 24.9021 25.1293 24.0762 25.4843 23.2971C25.6618 22.909 25.8761 22.5429 25.9663 22.1217C26.095 21.5202 26.0104 20.8828 25.9028 20.2822C25.8991 20.2748 25.8817 20.2804 25.8844 20.2914ZM26.5347 18.5899C26.3263 18.3775 26.0563 18.2362 25.763 18.1861C25.757 18.1844 25.7506 18.1851 25.7452 18.1881C25.7398 18.1912 25.7357 18.1962 25.734 18.2022C25.7323 18.2082 25.7331 18.2146 25.7361 18.22C25.7391 18.2254 25.7442 18.2295 25.7501 18.2312C25.9893 18.3016 26.2119 18.4192 26.405 18.577C26.5301 18.6828 26.4583 18.8833 26.4381 19.024C26.4179 19.1647 26.3967 19.3054 26.3746 19.4461C26.2926 19.9951 26.1743 20.538 26.0205 21.0713C26.0205 21.0824 26.0343 21.087 26.038 21.0759C26.1548 20.6828 26.2506 20.2836 26.325 19.8803C26.3636 19.6779 26.3967 19.4756 26.428 19.2714C26.4436 19.1721 26.4583 19.0727 26.4721 18.9725C26.4859 18.8722 26.4832 18.7269 26.5411 18.6386C26.5455 18.6309 26.5473 18.622 26.5461 18.6132C26.545 18.6043 26.5409 18.5962 26.5347 18.5899Z" fill="#D46D47"/>
<path d="M26.3323 18.7518C26.0832 19.2281 25.9401 19.7527 25.9129 20.2896C25.9129 20.3071 25.9387 20.3071 25.9405 20.2896C25.988 19.76 26.1229 19.2419 26.3397 18.7564C26.3397 18.7518 26.3351 18.7472 26.3323 18.7518Z" fill="#742F04"/>
<path d="M9.89645 22.5733C9.7824 22.4482 9.68675 22.3241 9.68215 22.1484C9.67755 21.9727 9.77412 21.8108 9.79896 21.6425C9.83575 21.4071 9.67755 21.2029 9.53131 21.0373C9.3538 20.8359 9.14042 20.6694 8.97946 20.4524C8.71458 20.0909 8.51959 19.6853 8.22159 19.3422C7.99441 19.0773 7.6771 18.8594 7.33588 19.058V19.0645C7.75528 18.841 8.10294 19.2263 8.3338 19.5363C8.56466 19.8463 8.75137 20.205 8.99326 20.5158C9.1333 20.6776 9.28255 20.8311 9.44026 20.9757C9.54554 21.0793 9.63648 21.1966 9.71066 21.3243C9.80907 21.5027 9.76033 21.6848 9.69503 21.8633C9.61225 22.0895 9.5773 22.2799 9.71894 22.4878C9.86058 22.6956 10.1282 22.8501 10.1393 23.1178C10.1393 23.1246 10.142 23.1312 10.1468 23.136C10.1516 23.1408 10.1582 23.1435 10.165 23.1435C10.1718 23.1435 10.1784 23.1408 10.1832 23.136C10.1881 23.1312 10.1908 23.1246 10.1908 23.1178C10.2092 22.8897 10.0408 22.7315 9.89645 22.5733ZM8.74585 21.9295C8.72517 21.8066 8.73087 21.6807 8.76259 21.5602C8.7943 21.4397 8.8513 21.3273 8.9298 21.2305C8.99317 21.1669 9.06045 21.1073 9.13122 21.052C9.16985 21.0134 9.14502 20.9132 9.1441 20.8681C9.1441 20.9959 9.10731 20.9739 9.01257 21.0392C8.93374 21.0981 8.86614 21.1707 8.81299 21.2535C8.69012 21.4299 8.63614 21.6452 8.66123 21.8587C8.73297 22.347 9.28574 22.3921 9.61685 22.6487C9.61883 22.6503 9.62135 22.6511 9.62389 22.6509C9.62643 22.6507 9.6288 22.6496 9.63054 22.6477C9.63229 22.6459 9.63326 22.6434 9.63328 22.6409C9.6333 22.6383 9.63236 22.6359 9.63064 22.634C9.36484 22.3351 8.8461 22.3921 8.74585 21.9313V21.9295ZM8.3338 19.5381C8.33295 19.5366 8.3315 19.5354 8.32977 19.5349C8.32805 19.5343 8.32619 19.5345 8.3246 19.5354C8.32302 19.5362 8.32184 19.5377 8.32132 19.5394C8.3208 19.5411 8.32099 19.543 8.32184 19.5446C8.52971 19.9842 8.39266 20.3825 8.22987 20.8092C8.10662 21.1321 8.01189 21.4613 8.15445 21.7934C8.15445 21.7934 8.15997 21.7934 8.15445 21.7934C7.8353 21.0199 8.7624 20.308 8.3338 19.5354V19.5381Z" fill="#D46D47"/>
<path d="M11.4968 17.5948C11.4968 17.5948 11.804 16.9123 12.7927 16.7081C13.7814 16.5039 14.4298 16.503 15.0783 16.7762C15.7267 17.0493 16.3401 17.3897 16.8175 17.4586C17.0726 17.4908 17.324 17.5477 17.568 17.6288L17.9433 17.7309C17.9433 17.7309 17.9773 16.9123 17.6361 16.5352C17.6764 16.7032 17.6992 16.8748 17.7041 17.0475C17.7041 17.0475 17.4282 16.5012 17.0603 16.2289L17.1964 16.5692C17.1964 16.5692 16.7871 16.0579 16.514 15.9254C16.2408 15.793 13.6149 15.5842 12.5591 15.9594C11.5032 16.3347 11.4968 17.5948 11.4968 17.5948Z" fill="black"/>
<path d="M25.2507 17.5948C25.2507 17.5948 25.0456 16.9123 24.3834 16.7081C23.7212 16.5039 23.288 16.503 22.8539 16.7762C22.4197 17.0493 22.0095 17.3897 21.6904 17.4586C21.516 17.4921 21.347 17.5494 21.1882 17.6288L20.9371 17.7309C20.9371 17.7309 20.9141 16.9123 21.1422 16.5352C21.1153 16.7047 21.1003 16.8759 21.0971 17.0475C21.0971 17.0475 21.2811 16.5012 21.5303 16.2289L21.4384 16.5692C21.4384 16.5692 21.7143 16.0579 21.8982 15.9254C22.0822 15.793 23.838 15.5842 24.5453 15.9594C25.2526 16.3347 25.2507 17.5948 25.2507 17.5948Z" fill="black"/>
<path d="M22.2449 18.0058C22.5972 17.7299 23.1132 17.7124 23.5326 17.8081C23.9812 17.9037 24.3782 18.1626 24.6464 18.5347C24.6464 18.5347 24.6556 18.5347 24.6528 18.5347C24.4303 18.1429 23.9768 17.8578 23.5537 17.7345C23.0764 17.5956 22.6128 17.6692 22.2431 18.0058C22.2431 18.0058 22.2431 18.0114 22.2431 18.0058H22.2449Z" fill="#742F04"/>
<path d="M24.6905 19.07C24.6905 19.07 24.2389 18.1503 23.3863 18.0298C22.5337 17.9093 21.9534 18.5412 21.8678 18.7711C21.7823 19.001 23.3689 19.7267 23.3689 19.7267C23.3689 19.7267 24.2132 19.6826 24.6905 19.07Z" fill="black"/>
<path d="M24.4753 19.092C23.9786 18.0886 22.2596 17.6986 21.7161 19.0608H21.7059L21.6609 19.1527C21.6149 19.2447 21.6149 19.3468 21.6949 19.3578C21.759 19.3651 21.8235 19.3688 21.888 19.3689C22.1934 19.6102 22.5678 19.7478 22.9568 19.7616C23.2449 19.7794 23.5333 19.7305 23.7995 19.6189C24.0657 19.5072 24.3026 19.3358 24.4919 19.1178L24.4753 19.092Z" fill="white"/>
<path d="M23.9235 18.8308C23.923 18.6899 23.8916 18.5508 23.8315 18.4234C23.2658 18.095 22.519 18.0693 22.0352 18.5586C22.009 18.6482 21.9957 18.7411 21.9957 18.8345C21.9959 19.0134 22.0459 19.1887 22.1401 19.3407C22.2343 19.4928 22.369 19.6156 22.5291 19.6954C22.6687 19.7384 22.8136 19.7617 22.9596 19.7644C23.0478 19.7699 23.1362 19.7699 23.2245 19.7644C23.427 19.7065 23.6049 19.5839 23.7312 19.4153C23.8574 19.2467 23.9249 19.0414 23.9235 18.8308Z" fill="#3F0D00"/>
<path d="M22.9596 19.6825C23.1167 19.6826 23.2707 19.6393 23.4047 19.5573C23.5387 19.4753 23.6474 19.3578 23.7188 19.2179C23.7902 19.078 23.8215 18.921 23.8093 18.7644C23.797 18.6078 23.7417 18.4576 23.6494 18.3305C23.1895 18.1263 22.6423 18.1171 22.2238 18.4004C22.1479 18.5299 22.1077 18.6771 22.107 18.8271C22.1063 18.9771 22.1453 19.1247 22.22 19.2548C22.2947 19.3849 22.4024 19.493 22.5323 19.5681C22.6621 19.6432 22.8095 19.6827 22.9596 19.6825Z" fill="#3F0D00"/>
<path d="M23.4627 18.8309C23.4627 18.9304 23.4332 19.0276 23.3779 19.1104C23.3226 19.1931 23.244 19.2576 23.1521 19.2957C23.0602 19.3337 22.959 19.3437 22.8614 19.3243C22.7638 19.3049 22.6742 19.257 22.6038 19.1866C22.5335 19.1163 22.4856 19.0266 22.4661 18.929C22.4467 18.8314 22.4567 18.7303 22.4948 18.6383C22.5329 18.5464 22.5973 18.4678 22.6801 18.4125C22.7628 18.3573 22.8601 18.3278 22.9596 18.3278C23.093 18.3278 23.221 18.3808 23.3153 18.4751C23.4097 18.5695 23.4627 18.6974 23.4627 18.8309Z" fill="black"/>
<path d="M23.3146 18.8309C23.3146 18.9011 23.2938 18.9697 23.2548 19.0281C23.2158 19.0865 23.1603 19.132 23.0954 19.1588C23.0306 19.1857 22.9592 19.1927 22.8903 19.179C22.8214 19.1654 22.7582 19.1315 22.7085 19.0819C22.6589 19.0322 22.6251 18.969 22.6114 18.9001C22.5977 18.8312 22.6047 18.7599 22.6316 18.695C22.6584 18.6301 22.704 18.5747 22.7623 18.5357C22.8207 18.4967 22.8894 18.4758 22.9596 18.4758C23.0537 18.4758 23.144 18.5132 23.2106 18.5798C23.2772 18.6464 23.3146 18.7367 23.3146 18.8309Z" fill="black"/>
<path d="M23.1656 18.4133C23.1656 18.454 23.1535 18.4939 23.1309 18.5278C23.1082 18.5616 23.0761 18.588 23.0384 18.6036C23.0008 18.6192 22.9593 18.6233 22.9194 18.6154C22.8794 18.6074 22.8427 18.5878 22.8139 18.559C22.7851 18.5302 22.7654 18.4935 22.7575 18.4535C22.7495 18.4135 22.7536 18.3721 22.7692 18.3345C22.7848 18.2968 22.8112 18.2646 22.8451 18.242C22.879 18.2194 22.9188 18.2073 22.9596 18.2073C23.0142 18.2073 23.0666 18.229 23.1052 18.2676C23.1439 18.3063 23.1656 18.3587 23.1656 18.4133Z" fill="white"/>
<path d="M15.7856 18.0058C15.3652 17.7299 14.7481 17.7124 14.2496 17.8081C13.7033 17.9139 13.2452 18.1548 12.9187 18.5347C12.9187 18.5347 12.9086 18.5347 12.9114 18.5347C13.1772 18.1429 13.7189 17.8578 14.2238 17.7345C14.7941 17.5956 15.3487 17.6692 15.7874 18.0058C15.7874 18.0058 15.7874 18.0114 15.7874 18.0058H15.7856Z" fill="#742F04"/>
<path d="M12.8644 19.07C12.8644 19.07 13.4034 18.1503 14.4225 18.0298C15.4416 17.9093 16.1332 18.5412 16.2353 18.7711C16.3374 19.001 14.44 19.7267 14.44 19.7267C14.44 19.7267 13.4347 19.6826 12.8644 19.07Z" fill="black"/>
<path d="M13.1211 19.092C13.7143 18.0886 15.7681 17.6986 16.4193 19.0608H16.4257L16.48 19.1527C16.5343 19.2447 16.5343 19.3468 16.4395 19.3578C16.3448 19.3689 16.2087 19.3689 16.2087 19.3689C15.7314 19.6656 15.1713 19.8009 14.6111 19.7549C14.051 19.7088 13.5205 19.4839 13.0981 19.1132L13.1211 19.092Z" fill="white"/>
<path d="M15.6356 18.8309C15.6361 18.6211 15.5673 18.417 15.4397 18.2505C14.8744 18.1146 14.2784 18.1991 13.7732 18.4869C13.6829 18.7189 13.6862 18.9769 13.7825 19.2065C13.8787 19.436 14.0604 19.6193 14.2891 19.7175C14.4973 19.7568 14.7093 19.7719 14.921 19.7626C15.1262 19.7078 15.3075 19.5867 15.4368 19.4182C15.566 19.2497 15.6359 19.0432 15.6356 18.8309Z" fill="#3F0D00"/>
<path d="M14.6717 19.6826C14.8422 19.6822 15.0086 19.6307 15.1495 19.5347C15.2903 19.4387 15.3992 19.3027 15.4619 19.1442C15.5246 18.9857 15.5383 18.812 15.5012 18.6457C15.4641 18.4793 15.378 18.3279 15.2539 18.211C14.8049 18.1455 14.3464 18.2126 13.935 18.4041C13.8597 18.5336 13.8199 18.6806 13.8195 18.8304C13.8191 18.9802 13.8581 19.1274 13.9327 19.2573C14.0073 19.3872 14.1148 19.4952 14.2444 19.5703C14.3739 19.6454 14.521 19.6851 14.6708 19.6853L14.6717 19.6826Z" fill="#3F0D00"/>
<path d="M15.1758 18.8309C15.1758 18.9304 15.1463 19.0276 15.091 19.1104C15.0357 19.1931 14.9571 19.2576 14.8652 19.2957C14.7733 19.3337 14.6721 19.3437 14.5745 19.3243C14.4769 19.3049 14.3873 19.257 14.3169 19.1866C14.2466 19.1163 14.1986 19.0266 14.1792 18.929C14.1598 18.8314 14.1698 18.7303 14.2079 18.6383C14.2459 18.5464 14.3104 18.4678 14.3931 18.4125C14.4759 18.3573 14.5732 18.3278 14.6727 18.3278C14.8061 18.3278 14.9341 18.3808 15.0284 18.4751C15.1228 18.5695 15.1758 18.6974 15.1758 18.8309Z" fill="black"/>
<path d="M15.0268 18.8309C15.0268 18.9011 15.0059 18.9697 14.9669 19.0281C14.9279 19.0865 14.8725 19.132 14.8076 19.1588C14.7427 19.1857 14.6713 19.1927 14.6025 19.179C14.5336 19.1654 14.4703 19.1315 14.4207 19.0819C14.371 19.0322 14.3372 18.969 14.3235 18.9001C14.3098 18.8312 14.3169 18.7599 14.3437 18.695C14.3706 18.6301 14.4161 18.5747 14.4745 18.5357C14.5329 18.4967 14.6015 18.4758 14.6717 18.4758C14.7184 18.4758 14.7645 18.485 14.8076 18.5029C14.8507 18.5207 14.8898 18.5468 14.9228 18.5798C14.9557 18.6128 14.9819 18.6519 14.9997 18.695C15.0176 18.7381 15.0268 18.7842 15.0268 18.8309Z" fill="black"/>
<path d="M14.6718 18.2109C14.631 18.2109 14.5912 18.223 14.5573 18.2457C14.5234 18.2683 14.497 18.3005 14.4814 18.3381C14.4658 18.3758 14.4618 18.4172 14.4697 18.4571C14.4777 18.4971 14.4973 18.5338 14.5261 18.5626C14.5549 18.5914 14.5916 18.6111 14.6316 18.619C14.6716 18.627 14.713 18.6229 14.7506 18.6073C14.7883 18.5917 14.8204 18.5653 14.8431 18.5314C14.8657 18.4975 14.8778 18.4577 14.8778 18.417C14.8778 18.3899 14.8725 18.3631 14.8621 18.3381C14.8518 18.3131 14.8366 18.2904 14.8175 18.2713C14.7983 18.2521 14.7756 18.237 14.7506 18.2266C14.7256 18.2163 14.6988 18.2109 14.6718 18.2109Z" fill="white"/>
<path d="M22.2772 5.04386C22.2772 3.88406 21.5616 2.62217 21.5616 2.62217C21.8375 4.46167 20.606 5.65733 20.606 5.65733C21.7318 4.02019 21.2204 2.24692 21.2204 2.24692C21.0153 4.49753 19.0369 6.23769 18.4611 6.95326C17.8854 7.66882 17.5671 9.40898 17.5671 9.40898C17.5671 9.40898 18.5899 8.04499 19.0682 7.32851C19.2066 7.11914 19.3874 6.94114 19.5989 6.806C19.8104 6.67086 20.0479 6.5816 20.296 6.54397C19.5152 7.80586 19.6826 8.69341 19.6826 8.69341C19.6145 7.97693 20.5011 6.68101 20.8083 6.54397C21.1155 6.40693 21.2857 7.12433 21.2857 7.12433C20.8424 9.17076 21.5248 9.61408 21.5248 9.61408C20.8782 7.87392 22.0049 6.13468 22.0049 6.13468C22.2808 7.39657 22.8575 7.66974 22.8575 7.66974C22.4482 7.26045 22.2772 6.20274 22.2772 5.04386ZM23.8462 7.26045C23.608 6.81713 22.7895 6.44188 22.4823 5.17999V5.6233C22.4823 5.6233 22.5844 6.68101 23.0277 7.53362C23.471 8.38622 23.0957 9.47704 22.8235 10.1255C22.8235 10.1255 23.7101 9.13673 23.437 7.87392C23.437 7.87392 23.7782 8.38622 23.7442 8.86357C23.7442 8.86357 24.0854 7.70377 23.8462 7.26045ZM16.377 8.01096C16.0358 8.69341 16.2409 9.44301 16.2409 9.44301C16.2409 8.76148 16.8203 7.90887 16.8203 7.90887C16.6502 9.06775 17.0962 9.71617 17.0962 9.71617C17.1211 9.13375 17.178 8.55314 17.2664 7.97693C17.3997 7.15836 18.119 6.4382 18.119 6.4382C18.119 6.4382 16.7182 7.32851 16.377 8.01096Z" fill="url(#paint0_linear)"/>
<path d="M12.4092 6.16871C12.8691 5.89278 13.9553 5.6233 15.001 5.39612C16.0468 5.16894 17.6389 4.53156 18.3213 3.94108C17.9741 4.38639 17.5409 4.75735 17.0475 5.0319C17.0475 5.0319 19.4581 4.30438 20.0035 3.39475C20.2453 2.99749 20.4533 2.5806 20.6253 2.1485C20.4846 2.36188 20.285 2.67459 20.0946 2.99742C19.7534 3.57686 18.4574 4.22528 18.4574 4.22528C18.4574 4.22528 18.9688 3.47477 19.0038 2.92936C19.0038 2.92936 18.2192 4.36141 14.979 5.07789C14.979 5.07789 12.9666 5.28207 12.0799 5.93049C11.6274 6.26068 11.0875 6.60834 10.5945 7.01487L10.6359 7.03327C10.6359 7.03327 11.9567 6.43819 12.4092 6.16871Z" fill="url(#paint1_linear)"/>
<path d="M15.1482 11.3533C15.2172 11.1593 15.4112 10.9854 15.6145 10.864C15.2466 11.0158 14.8566 11.1326 14.5108 11.3837C14.5289 11.2275 14.5875 11.0788 14.681 10.9523C14.3057 11.0094 13.6803 11.3267 13.3758 10.945C13.019 10.4971 13.4255 9.72907 13.0484 9.26C12.3568 8.40004 10.7555 8.93533 10.7684 7.63021C10.5669 7.67068 10.3407 7.75438 10.1429 7.80036C10.2294 7.34049 10.6083 7.07377 10.921 6.76013C10.8465 6.81624 10.7721 6.87326 10.6994 6.9312H10.6939L10.6019 7.0103L10.5817 7.02594L10.4989 7.09676C10.4908 7.10269 10.4831 7.10915 10.4759 7.11607L10.3913 7.18965L10.3747 7.20437C10.3076 7.26415 10.2423 7.32486 10.1788 7.38832C10.1715 7.39476 10.165 7.40211 10.1586 7.40855C10.1334 7.43247 10.1095 7.45638 10.0868 7.48029C10.0767 7.49041 10.0684 7.50053 10.0583 7.50972L9.99578 7.57687L9.96727 7.60722L9.90473 7.67896L9.88174 7.70563C9.82563 7.77185 9.77229 7.83899 9.72078 7.90797L9.69871 7.93833L9.64628 8.01191L9.62053 8.04961L9.57546 8.11952L9.55063 8.15906L9.50648 8.23448L9.48625 8.26943C9.46509 8.30714 9.44578 8.34393 9.42646 8.38256C9.42646 8.38256 9.01718 9.02638 8.67595 9.2692C8.33472 9.51201 7.346 10.0878 7.48028 11.827C7.48028 11.827 7.61732 11.0084 8.29885 10.6313C8.29885 10.6313 7.61732 12.0643 7.37911 13.1211C7.34138 13.8372 7.35275 14.5551 7.41314 15.2696C7.50971 16.2648 7.81783 17.5607 7.5419 18.2772C7.47292 18.4611 7.88221 18.038 8.08731 18.038C8.08731 18.038 8.59869 18.9247 8.83782 19.1638C9.07696 19.403 9.41727 19.7433 9.55339 20.1525C9.68951 20.5618 9.96267 21.4144 10.2358 21.7897C10.509 22.1649 11.0884 23.734 11.1225 24.0753L11.4297 24.0072C11.4297 24.0072 10.9523 22.267 10.7132 21.7216C10.4741 21.1762 10.3379 20.2556 10.475 19.471C10.612 18.6865 10.9183 17.0493 10.9864 16.1599C10.9864 16.1599 12.2823 15.1022 12.9307 14.3517C13.5791 13.6012 14.3287 12.6465 14.3287 12.6465C14.1723 12.9569 13.9898 13.2535 13.7833 13.5331C13.7833 13.5331 14.6699 12.9197 15.1473 12.4074C15.174 12.3789 15.2034 12.3485 15.2337 12.3154L15.2972 12.2538L15.3248 12.2271C15.3533 12.1995 15.3837 12.1719 15.4168 12.1443L15.4232 12.1379L15.5271 12.0459C15.2374 11.8896 15.0066 11.7488 15.1482 11.3533Z" fill="url(#paint2_linear)"/>
<path d="M24.4652 12.8884C24.4652 12.8884 25.0106 14.1843 25.0446 14.8318C25.0787 15.4793 25.2838 16.1627 25.3859 16.503C25.488 16.8433 25.556 17.6288 25.4539 18.2772C25.3518 18.9256 25.6581 19.8803 25.6581 19.8803L25.8292 20.2896C25.7487 19.9315 25.7144 19.5646 25.7271 19.1978C25.7611 18.6865 25.7611 17.6628 25.9653 17.1174C26.1695 16.572 26.7839 14.7637 26.8851 14.4565C26.8828 14.156 26.837 13.8573 26.7489 13.5699C26.7489 13.5699 27.0055 13.913 27.0488 14.1282C27.0147 13.8222 26.9484 13.5207 26.851 13.2287C26.7149 12.8884 26.92 10.7389 26.5447 9.81827C26.5447 9.81827 25.8375 8.68055 25.2396 8.18665C25.3758 8.46257 25.5018 8.75873 25.51 9.03373C25.5321 9.81919 25.0502 9.15606 24.7246 9.57546C24.3484 10.0537 25.1366 10.9661 24.8285 11.4895C24.582 11.9079 24.1525 11.6964 24.1387 12.3926C24.0941 12.4043 24.0475 12.4069 24.0019 12.4003C23.9562 12.3936 23.9124 12.3779 23.8729 12.354L23.8545 12.3834C24.0318 12.5812 24.2376 12.7514 24.4652 12.8884Z" fill="url(#paint3_linear)"/>
<path d="M13.7851 13.5359C13.7851 13.5359 14.6718 12.9224 15.1491 12.4101C15.1758 12.3816 15.2052 12.3512 15.2356 12.3181L15.299 12.2565L15.3266 12.2298C15.3551 12.2023 15.3855 12.1747 15.4186 12.1471L15.425 12.1406L15.529 12.0487C15.2402 11.8868 15.0093 11.7461 15.151 11.3506C15.2199 11.1565 15.414 10.9827 15.6173 10.8613C15.2494 11.013 14.8594 11.1298 14.5136 11.3809C14.5316 11.2247 14.5903 11.076 14.6837 10.9496C14.3085 11.0066 13.683 11.3239 13.3786 10.9422C13.0217 10.4943 13.4283 9.72629 13.0512 9.25722C12.3595 8.39726 10.7583 8.93255 10.7711 7.62743C10.5697 7.6679 10.3434 7.7516 10.1457 7.79759C10.2322 7.33771 10.6111 7.07099 10.9238 6.75735C10.8493 6.81346 10.7748 6.87048 10.7021 6.92843H10.6966L10.6047 7.00753L10.5844 7.02316L10.5016 7.09398C10.4936 7.09992 10.4859 7.10637 10.4787 7.1133L10.394 7.18688L10.3775 7.20159C10.3103 7.26138 10.245 7.32208 10.1816 7.38554C10.1742 7.39198 10.1678 7.39934 10.1613 7.40578C10.1362 7.42969 10.1123 7.4536 10.0896 7.47752C10.0795 7.48763 10.0712 7.49775 10.0611 7.50695L9.99854 7.57409L9.97003 7.60444L9.90749 7.67618L9.8845 7.70285C9.82839 7.76908 9.77505 7.83622 9.72354 7.9052L9.70147 7.93555L9.64904 8.00913L9.62329 8.04684L9.57822 8.11674L9.55339 8.15629L9.50924 8.23171L9.489 8.26666C9.46785 8.30437 9.44854 8.34116 9.42922 8.37979C9.30226 8.57706 9.16278 8.76599 9.01166 8.94543C10.3545 8.61892 12.3439 8.56374 12.8176 9.70974C13.0806 10.3471 12.9813 11.3432 13.0558 12.0293C13.0999 12.4368 13.3317 12.9978 13.6784 13.4678C14.0519 13.0079 14.3407 12.64 14.3407 12.64C14.1815 12.954 13.9956 13.2537 13.7851 13.5359Z" fill="url(#paint4_linear)"/>
<path d="M25.2359 8.18573C25.3721 8.46165 25.4981 8.75781 25.5063 9.03282C25.5284 9.81828 25.0465 9.15514 24.7209 9.57455C24.3447 10.0528 25.1329 10.9652 24.8248 11.4885C24.8141 11.5066 24.8025 11.5241 24.7899 11.541C24.9867 11.3644 25.1219 11.151 25.0529 10.8052C24.9683 10.3812 24.777 10.1945 25.2369 9.9774C25.6222 9.79345 26.1833 9.81 26.5852 9.92957C26.5723 9.89002 26.5585 9.85231 26.5447 9.81644C26.5411 9.81828 25.8338 8.68055 25.2359 8.18573Z" fill="url(#paint5_linear)"/>
<path d="M7.54191 18.2772C7.47293 18.4611 7.88222 18.0381 8.08732 18.0381C8.08732 18.0381 8.5987 18.9247 8.83783 19.1638C9.07697 19.403 9.41727 19.7433 9.5534 20.1526C9.68952 20.5618 9.96268 21.4145 10.2358 21.7897C10.509 22.165 11.0885 23.734 11.1225 24.0753L11.4297 24.0072C11.4297 24.0072 10.9523 22.2671 10.7132 21.7216C10.4741 21.1762 10.3379 20.2556 10.475 19.471C10.612 18.6865 10.9183 17.0493 10.9864 16.1599L11.1133 16.0542C9.52948 16.0542 8.24644 16.0542 7.50604 16.0459C7.62561 16.8672 7.74886 17.7373 7.54191 18.2772Z" fill="url(#paint6_linear)"/>
<path d="M25.3849 16.503C25.487 16.8442 25.5551 17.6287 25.453 18.2772C25.3509 18.9256 25.6572 19.8803 25.6572 19.8803L25.8283 20.2896C25.7478 19.9315 25.7135 19.5646 25.7262 19.1978C25.7602 18.6864 25.7602 17.6628 25.9644 17.1174C26.0462 16.9003 26.1916 16.4846 26.3452 16.0422H25.2534C25.2985 16.227 25.3463 16.3862 25.3849 16.503Z" fill="url(#paint7_linear)"/>
<path d="M16.377 8.01096C16.2492 8.2768 16.182 8.56769 16.1802 8.86265V8.8746C16.1802 8.8746 16.1802 8.01096 17.317 7.1464C17.317 7.1464 16.9307 8.39726 17.1128 9.28389V9.27745C17.1367 8.93439 17.1809 8.43957 17.2581 7.97693C17.3998 7.15836 18.119 6.4382 18.119 6.4382C18.119 6.4382 16.7182 7.32851 16.377 8.01096ZM21.5616 2.62217C21.8375 4.46167 20.606 5.65733 20.606 5.65733C21.7318 4.02019 21.2204 2.24692 21.2204 2.24692C21.0153 4.49754 19.0369 6.23769 18.4611 6.95326C18.2018 7.27425 17.9967 7.80034 17.8495 8.28321V8.35219C17.8495 8.35219 18.2588 7.26045 18.8042 6.7831C19.3496 6.30576 20.7541 4.71368 21.1634 3.12711C21.1634 3.12711 21.2774 4.76426 20.2307 6.03719C20.2307 6.03719 21.5956 5.35474 21.7768 3.51341C21.7768 3.51341 22.164 4.4681 22.3002 6.03719L22.3305 6.09973C22.2939 5.75052 22.2761 5.39959 22.2772 5.04846C22.2772 3.88406 21.5616 2.62217 21.5616 2.62217ZM23.8463 7.26045C23.608 6.81713 22.7895 6.44188 22.4823 5.17999V5.6233C22.5458 6.16895 22.6797 6.70409 22.8805 7.21538L22.9145 7.28344C22.9145 7.28344 22.7094 6.44188 22.7306 6.19171C22.9282 6.45349 23.1489 6.69697 23.3901 6.91923C23.6614 7.15192 23.8821 7.61639 23.8996 8.1149C23.9437 7.7985 23.9529 7.4582 23.8463 7.26045Z" fill="url(#paint8_linear)"/>
<path d="M7.54188 18.2772C7.4729 18.4611 7.88218 18.038 8.08729 18.038C8.08729 18.038 8.59866 18.9247 8.8378 19.1638C9.07693 19.4029 9.41724 19.7432 9.55336 20.1525C9.68948 20.5618 9.96265 21.4144 10.2358 21.7897C10.509 22.1649 11.0884 23.734 11.1224 24.0753L11.4296 24.0072C11.4296 24.0072 10.9523 22.267 10.7132 21.7216C10.474 21.1762 10.3379 20.2555 10.4749 19.471C10.612 18.6865 10.9183 17.0493 10.9863 16.1599C10.9863 16.1599 12.2822 15.1022 12.9307 14.3517C13.5791 13.6012 14.3287 12.6465 14.3287 12.6465C14.1723 12.9569 13.9898 13.2535 13.7833 13.5331C13.7833 13.5331 14.6699 12.9197 15.1473 12.4074C15.6246 11.8951 16.6474 11.1142 17.4687 10.945C18.29 10.7757 18.7986 10.3011 18.9688 10.0252C18.7847 10.3111 18.5544 10.5644 18.2873 10.7748C18.2873 10.7748 19.3441 10.5706 19.6853 9.95715C19.6853 9.95715 20.2307 10.5706 20.9131 10.7408C20.9131 10.7408 20.777 10.6387 20.6749 10.3315C20.6749 10.3315 21.4935 11.0139 22.107 11.1501C21.9619 11.021 21.855 10.8546 21.7979 10.669C21.7979 10.669 22.6165 11.4195 23.1969 11.6247C23.1969 11.6247 23.9805 12.6474 24.4588 12.8865C24.4588 12.8865 25.0042 14.1825 25.0382 14.83C25.0722 15.4775 25.2773 16.1608 25.3794 16.5011C25.4815 16.8415 25.5496 17.6269 25.4475 18.2753C25.3454 18.9238 25.6517 19.8785 25.6517 19.8785L25.8227 20.2877C25.7423 19.9297 25.708 19.5628 25.7206 19.196C25.7547 18.6846 25.7547 17.6609 25.9589 17.1155C26.163 16.5701 26.7774 14.7619 26.8786 14.4547C26.8764 14.1541 26.8305 13.8555 26.7425 13.5681C26.7425 13.5681 27.0497 13.9774 27.0497 14.1825C27.0497 14.1825 26.9816 13.5681 26.8446 13.2269C26.7075 12.8856 26.9136 10.7371 26.5383 9.81643C26.5383 9.81643 25.7538 8.55454 25.1394 8.11122C24.525 7.66791 23.4029 5.51846 23.1297 4.53157C23.1297 4.53157 23.2327 5.75943 23.505 6.44189C23.505 6.44189 22.5852 5.31612 22.3452 4.15724C22.2017 3.46034 21.8982 2.80634 21.4585 2.24693C21.4585 2.24693 21.3905 1.66657 21.0833 1.36029C21.0833 1.36029 21.3592 2.14483 20.6059 2.7583C20.6059 2.7583 20.709 2.11448 20.811 1.87167C20.811 1.87167 20.4358 2.41708 20.0946 2.99744C19.7533 3.5778 18.4574 4.2253 18.4574 4.2253C18.4574 4.2253 18.9688 3.47479 19.0037 2.92938C19.0037 2.92938 18.2192 4.36142 14.9789 5.0779C14.9789 5.0779 12.9665 5.28209 12.0799 5.93051C11.1933 6.57893 9.96449 7.29449 9.41908 8.38623C9.41908 8.38623 9.00979 9.03005 8.66857 9.27286C8.32734 9.51568 7.33861 10.0914 7.4729 11.8307C7.4729 11.8307 7.60994 11.0121 8.29147 10.635C8.29147 10.635 7.60994 12.068 7.37172 13.1248C7.334 13.8409 7.34537 14.5587 7.40575 15.2733C7.50969 16.2648 7.8178 17.5607 7.54188 18.2772Z" fill="black"/>
</g>
<defs>
<linearGradient id="paint0_linear" x1="20.0551" y1="11.1142" x2="20.0551" y2="2.17886" gradientUnits="userSpaceOnUse">
<stop/>
<stop offset="1" stop-color="#35596F"/>
</linearGradient>
<linearGradient id="paint1_linear" x1="15.9116" y1="7.76906" x2="15.5023" y2="3.44902" gradientUnits="userSpaceOnUse">
<stop stop-color="#080D10"/>
<stop offset="1" stop-color="#3C6D86"/>
</linearGradient>
<linearGradient id="paint2_linear" x1="1021.25" y1="2421.18" x2="425.474" y2="645.641" gradientUnits="userSpaceOnUse">
<stop/>
<stop offset="1" stop-color="#35596F"/>
</linearGradient>
<linearGradient id="paint3_linear" x1="913.045" y1="1780.78" x2="328.803" y2="817.303" gradientUnits="userSpaceOnUse">
<stop/>
<stop offset="1" stop-color="#35596F"/>
</linearGradient>
<linearGradient id="paint4_linear" x1="1103.69" y1="1014.93" x2="608.043" y2="393.957" gradientUnits="userSpaceOnUse">
<stop/>
<stop offset="1" stop-color="#35596F"/>
</linearGradient>
<linearGradient id="paint5_linear" x1="546.436" y1="475.469" x2="663.267" y2="307.076" gradientUnits="userSpaceOnUse">
<stop/>
<stop offset="1" stop-color="#35596F"/>
</linearGradient>
<linearGradient id="paint6_linear" x1="411.483" y1="1447.84" x2="411.483" y2="2273.59" gradientUnits="userSpaceOnUse">
<stop/>
<stop offset="1" stop-color="#35596F"/>
</linearGradient>
<linearGradient id="paint7_linear" x1="331.443" y1="783.926" x2="331.443" y2="968.729" gradientUnits="userSpaceOnUse">
<stop/>
<stop offset="1" stop-color="#35596F"/>
</linearGradient>
<linearGradient id="paint8_linear" x1="1706.27" y1="780.184" x2="1706.27" y2="169.516" gradientUnits="userSpaceOnUse">
<stop stop-color="#080D10"/>
<stop offset="1" stop-color="#3C6D86"/>
</linearGradient>
<clipPath id="clip0">
<rect width="35" height="35" fill="white"/>
</clipPath>
</defs>
</svg>
