<svg width="150" height="30" viewBox="0 0 150 30" fill="none" xmlns="http://www.w3.org/2000/svg">
<path d="M51.5869 21.508L51.8487 25.9684C51.0235 26.3194 50.1291 26.4854 49.2304 26.4546C47.1025 26.4546 45.3858 25.8252 44.0801 24.5665C42.7744 23.3078 42.1216 21.5629 42.1216 19.3318V13.4437H38.8042V8.65404H42.1216V4.0547H47.2431V8.65404H51.6235V13.4437H47.2431V19.0694C47.2285 19.4306 47.2922 19.7908 47.4299 20.126C47.5675 20.4612 47.7761 20.7639 48.0417 21.0141C48.5671 21.5037 49.2684 21.7691 49.9923 21.7524C50.5341 21.761 51.0735 21.6784 51.5869 21.508Z" fill="black"/>
<path d="M70.2922 16.6592C70.296 17.3177 70.2487 17.9755 70.1508 18.627H57.3236C57.5628 19.8137 58.0769 20.7166 58.8658 21.3357C59.736 21.9823 60.8076 22.3124 61.8979 22.2694C62.6986 22.2675 63.4889 22.0918 64.2125 21.7549C64.8593 21.4967 65.4083 21.0473 65.7835 20.4688L69.7738 22.8739C69.0719 24.0801 67.9878 25.0277 66.6868 25.5723C65.1468 26.2372 63.4775 26.5637 61.7957 26.5292C60.5612 26.5451 59.3358 26.3182 58.1919 25.8619C57.0479 25.4055 56.0084 24.729 55.1345 23.8722C54.2606 23.0153 53.5699 21.9954 53.1032 20.8724C52.6365 19.7494 52.4032 18.546 52.4169 17.3331C52.3903 16.1392 52.6151 14.9528 53.0774 13.8483C53.5397 12.7439 54.2295 11.7452 55.1033 10.9151C55.9643 10.0658 56.9919 9.39705 58.1239 8.94957C59.2559 8.50209 60.4685 8.28515 61.6884 8.31192C62.82 8.28732 63.9449 8.48872 64.9949 8.90392C66.045 9.31911 66.9982 9.93946 67.797 10.7273C68.6064 11.4938 69.2459 12.4164 69.6753 13.4372C70.1047 14.4579 70.3148 15.5549 70.2922 16.6592ZM57.4022 15.4244H65.1786C65.1294 14.9985 64.9942 14.5865 64.7812 14.2124C64.5681 13.8383 64.2813 13.5097 63.9375 13.2457C63.2359 12.6727 62.3493 12.3645 61.437 12.3762C60.5039 12.3178 59.581 12.5949 58.8406 13.1558C58.1001 13.7167 57.5926 14.523 57.4127 15.4244H57.4022Z" fill="black"/>
<path d="M85.0622 8.65405H90.1837V26.1768H85.0622V24.1035C84.5524 24.8851 83.8128 25.4961 82.9414 25.8553C81.9573 26.3038 80.8842 26.5323 79.7994 26.5241C78.3071 26.5348 76.8449 26.1114 75.597 25.3074C74.3101 24.484 73.2698 23.3386 72.5833 21.989C71.8449 20.5681 71.4676 18.9927 71.4836 17.3974C71.4836 14.8662 72.29 12.7183 73.9029 10.9537C75.5158 9.18909 77.4813 8.30678 79.7994 8.30678C80.8851 8.30043 81.9586 8.53245 82.9414 8.98588C83.8112 9.34581 84.5523 9.95206 85.0701 10.7274L85.0622 8.65405ZM80.9305 21.7524C81.7768 21.7562 82.6099 21.5463 83.3499 21.1427C84.0532 20.7807 84.6446 20.2396 85.0622 19.5762V15.2907C84.6504 14.6088 84.0588 14.0489 83.3499 13.6701C82.6118 13.2617 81.7776 13.0506 80.9305 13.0579C80.3395 13.0438 79.7516 13.1459 79.2013 13.3584C78.6511 13.5708 78.1497 13.8893 77.7266 14.2949C77.3035 14.7006 76.9673 15.1853 76.7378 15.7206C76.5082 16.2558 76.39 16.8308 76.39 17.4116C76.39 17.9924 76.5082 18.5673 76.7378 19.1026C76.9673 19.6378 77.3035 20.1225 77.7266 20.5282C78.1497 20.9339 78.6511 21.2523 79.2013 21.4647C79.7516 21.6772 80.3395 21.7794 80.9305 21.7652V21.7524Z" fill="black"/>
<path d="M113.675 8.30678C115.814 8.30678 117.559 8.94815 118.912 10.2309C120.265 11.5136 120.944 13.2002 120.949 15.2907V26.1768H115.791V16.335C115.791 15.2907 115.513 14.4641 114.958 13.8553C114.674 13.5502 114.325 13.3101 113.936 13.1519C113.547 12.9937 113.127 12.9212 112.707 12.9396C112.057 12.9444 111.422 13.1289 110.874 13.472C110.312 13.7962 109.843 14.2546 109.51 14.8045V26.1768H104.404V16.335C104.404 15.3061 104.123 14.4821 103.561 13.863C103.296 13.5645 102.968 13.3269 102.599 13.1673C102.23 13.0077 101.83 12.9299 101.427 12.9396C100.731 12.9291 100.047 13.1167 99.4578 13.4797C98.8945 13.8219 98.445 14.318 98.1644 14.9074V26.1768H93.0403V8.65404H98.1696V10.6579C98.6969 9.9491 99.3902 9.37558 100.191 8.98587C101.141 8.51586 102.194 8.28264 103.257 8.30678C105.551 8.30678 107.209 9.12564 108.232 10.7634C108.882 10.0313 109.679 9.43851 110.573 9.02189C111.536 8.54817 112.598 8.30322 113.675 8.30678Z" fill="black"/>
<path d="M124.172 1.0708C124.46 0.786217 124.803 0.560384 125.18 0.406284C125.557 0.252183 125.962 0.172852 126.37 0.172852C126.779 0.172852 127.183 0.252183 127.561 0.406284C127.938 0.560384 128.28 0.786217 128.568 1.0708C128.863 1.3447 129.097 1.67551 129.256 2.04247C129.415 2.40942 129.494 2.80462 129.49 3.20326C129.467 4.00076 129.128 4.75786 128.545 5.31378C127.963 5.86971 127.182 6.18069 126.37 6.18069C125.558 6.18069 124.778 5.86971 124.196 5.31378C123.613 4.75786 123.274 4.00076 123.251 3.20326C123.246 2.80462 123.326 2.40942 123.485 2.04247C123.643 1.67551 123.877 1.3447 124.172 1.0708ZM123.829 8.65404H128.951V26.1768H123.829V8.65404Z" fill="black"/>
<path d="M140.343 8.30678C141.594 8.29834 142.834 8.53534 143.99 9.00389C145.096 9.4403 146.099 10.0932 146.94 10.9228C147.78 11.7525 148.44 12.7414 148.879 13.8296C149.359 14.9714 149.603 16.1956 149.596 17.4309C149.616 19.0593 149.197 20.664 148.381 22.0816C147.596 23.4533 146.438 24.5841 145.038 25.3485C143.599 26.1404 141.974 26.5458 140.325 26.5241C137.687 26.5241 135.483 25.6598 133.711 23.9312C131.939 22.2025 131.058 20.0358 131.069 17.4309C131.069 14.8294 131.956 12.6583 133.729 10.9177C135.503 9.17709 137.707 8.30678 140.343 8.30678ZM140.343 13.1145C139.777 13.1004 139.214 13.2024 138.69 13.4141C138.166 13.6259 137.693 13.9426 137.301 14.3441C136.521 15.183 136.088 16.2781 136.088 17.4141C136.088 18.5502 136.521 19.6453 137.301 20.4842C137.697 20.8763 138.169 21.1874 138.689 21.3997C139.209 21.612 139.766 21.7213 140.329 21.7213C140.891 21.7213 141.449 21.612 141.968 21.3997C142.488 21.1874 142.96 20.8763 143.357 20.4842C143.758 20.0817 144.073 19.604 144.283 19.0794C144.494 18.5549 144.594 17.9943 144.579 17.4309C144.597 16.8627 144.498 16.2969 144.29 15.7668C144.081 15.2367 143.766 14.7529 143.365 14.3441C142.976 13.9436 142.506 13.6274 141.986 13.4157C141.466 13.2039 140.906 13.1014 140.343 13.1145Z" fill="black"/>
<path d="M18.2843 0.17305V6.27463H24.3772V12.2707H30.3705V5.40004C30.3705 4.01375 29.81 2.68425 28.8122 1.704C27.8144 0.723749 26.4612 0.17305 25.0501 0.17305H18.2843Z" fill="#ECB22D"/>
<path d="M0.40374 18.0508V5.40005C0.404081 4.71221 0.542539 4.03119 0.811184 3.396C1.07983 2.76081 1.47338 2.18392 1.96931 1.69838C2.46523 1.21285 3.05378 0.828191 3.70125 0.566451C4.34872 0.304711 5.04238 0.171027 5.74252 0.173057H18.2843V6.27207H24.3772V12.2708H12.3905V6.27464H6.28713V18.0508H0.40374Z" fill="#6FCDD6"/>
<path d="M24.3772 12.2708V24.0469H18.2738V18.0508H6.28712V24.0469H12.3905V29.8295H25.0501C26.4614 29.8288 27.8147 29.2776 28.8124 28.2969C29.8101 27.3162 30.3705 25.9865 30.3705 24.6V12.2708H24.3772Z" fill="#E03F67"/>
<path d="M0.40374 18.0508H6.28713V24.0469H12.4271V29.8295H5.72419C4.31288 29.8288 2.95961 29.2776 1.9619 28.2969C0.964201 27.3162 0.40374 25.9865 0.40374 24.6V18.0508Z" fill="#3CB187"/>
</svg>
