<svg width="8" height="10" viewBox="0 0 8 10" fill="none" xmlns="http://www.w3.org/2000/svg">
<path d="M6.89382 4.04787H6.8725V3.08131C6.8725 1.4005 5.49729 -0.028011 3.82003 0.000417146C2.18897 0.0288452 0.867058 1.36497 0.867058 3.00314V3.09553C0.867058 3.23411 0.98077 3.34783 1.11936 3.34783H1.92601C2.06459 3.34783 2.1783 3.23411 2.1783 3.09553V3.0671C2.1783 2.16451 2.85703 1.37207 3.75962 1.31522C4.74039 1.25481 5.5577 2.03303 5.5577 2.99958V4.04431H3.07024V4.04787H0.771113C0.344691 4.06208 0 4.40677 0 4.83675V9.20757C0 9.64465 0.355351 10 0.792434 10H6.89027C7.32735 10 7.6827 9.64465 7.6827 9.20757V4.8403C7.68625 4.40322 7.3309 4.04787 6.89382 4.04787ZM4.31397 7.22115C4.25356 7.2638 4.23579 7.30999 4.23579 7.38106C4.23934 7.70088 4.23934 8.02069 4.23579 8.34406C4.2429 8.4791 4.17538 8.60702 4.05456 8.66743C3.77383 8.80957 3.49311 8.61058 3.49311 8.34406C3.49311 8.34406 3.49311 8.34406 3.49311 8.34051C3.49311 8.02069 3.49311 7.69732 3.49311 7.37751C3.49311 7.31355 3.47889 7.26735 3.42204 7.22471C3.13065 7.0115 3.0347 6.64549 3.1804 6.32212C3.32254 6.00941 3.66723 5.82462 3.9906 5.89214C4.35306 5.96321 4.60536 6.25815 4.60891 6.61706C4.61957 6.86936 4.51652 7.07546 4.31397 7.22115Z" fill="#BDBDBD"/>
</svg>
