<svg width="11" height="8" viewBox="0 0 11 8" fill="none" xmlns="http://www.w3.org/2000/svg">
<g clip-path="url(#clip0)">
<path d="M7.29163 4.05964L11 6.53964V1.47491L7.29163 4.05964Z" fill="#BDBDBD"/>
<path d="M0 1.47491V6.53964L3.70837 4.05964L0 1.47491Z" fill="#BDBDBD"/>
<path d="M10.3125 0H0.687505C0.344442 0 0.0721924 0.270546 0.0206299 0.618909L5.5 4.43782L10.9794 0.618909C10.9278 0.270546 10.6556 0 10.3125 0Z" fill="#BDBDBD"/>
<path d="M6.66188 4.49891L5.68907 5.17673C5.63132 5.21673 5.566 5.23637 5.5 5.23637C5.434 5.23637 5.36869 5.21673 5.31094 5.17673L4.33813 4.49818L0.0220032 7.38618C0.0749407 7.73164 0.345816 8 0.687503 8H10.3125C10.6542 8 10.9251 7.73164 10.978 7.38618L6.66188 4.49891Z" fill="#BDBDBD"/>
</g>
<defs>
<clipPath id="clip0">
<rect width="11" height="8" fill="white"/>
</clipPath>
</defs>
</svg>
